<?xml version="1.0" encoding="utf-8"?>
<svg viewBox="0 0 500 500" xmlns="http://www.w3.org/2000/svg">
  <defs>
    <style>@import url(https://fonts.googleapis.com/css2?family=Quicksand%3Aital%2Cwght%400%2C300..700&amp;display=swap);</style>
  </defs>
  <path d="M 489.553 130.408 C 483.803 108.756 466.861 91.704 445.346 85.918 C 406.356 75.4 250 75.4 250 75.4 C 250 75.4 93.646 75.4 54.654 85.918 C 33.139 91.704 16.193 108.756 10.447 130.408 C 0 169.654 0 251.538 0 251.538 C 0 251.538 0 333.418 10.447 372.668 C 16.193 394.322 33.139 411.369 54.652 417.163 C 93.644 427.676 249.998 427.676 249.998 427.676 C 249.998 427.676 406.354 427.676 445.344 417.163 C 466.859 411.372 483.8 394.322 489.551 372.67 C 500 333.42 500 251.54 500 251.54 C 500 251.54 500 169.656 489.551 130.411" style="fill: rgb(85, 85, 85);"/>
  <text style="fill: rgb(255, 255, 255); font-family: Quicksand; font-size: 351px; font-weight: 600; paint-order: stroke; white-space: pre;" x="105.598" y="381.513">M</text>
</svg>
